# xmcd
#
# Track frame offsets:
#	150
#	14495
#	25307
#	37457
#	50395
#	62025
#	79022
#	92245
#	104050
#	114672
#	128705
#	141220
#	154285
#	168400
#
# Disc length: 2382
#
# Revision: 4
# Processed by: cddbd v1.5.1PL0 Copyright (c) Steve Scherf et al.
# Submitted via: EasyCDDAExtractor 7.0.6.1
# Normalized: r3:DSETVAR1
#
DISCID=c8094c0e
DTITLE=Various Artist - The Ultimate Soul Collection (Disk 1 - Soul)
DYEAR=1996
DGENRE=Soul
TTITLE0=Marvin Gaye - I Heard it Through the Grapevine
TTITLE1=Aretha Franklin - Respect
TTITLE2=Four Tops - I Can't Help Myself
TTITLE3=Supremes - Stop in the Name of Love
TTITLE4=Wilson Pickett - In the Midnight Hour
TTITLE5=Ottis Redding - Try a Little Tenderness
TTITLE6=Fontella Bass - Rescue Me
TTITLE7=Sam and Dave - Soul Man
TTITLE8=Arthur Conley - Sweet Soul Music
TTITLE9=Wilson Pickett - Mustang Sally
TTITLE10=J.J. Jackson - But it's Allright
TTITLE11=Booker T and the MG's - Green Onions
TTITLE12=Eddie Floyd - Knock on Wood
TTITLE13=Bar-Kays - Soul Finger
EXTD=Disk one of two disk set ~ $14 cdn 08/02/97\n
EXTT0=
EXTT1=
EXTT2=
EXTT3=
EXTT4=
EXTT5=
EXTT6=
EXTT7=
EXTT8=
EXTT9=
EXTT10=
EXTT11=
EXTT12=
EXTT13=
PLAYORDER=
